<svg preserveAspectRatio="none" width="100%" height="100%" overflow="visible" style="display: block;" viewBox="0 0 16 16" fill="none" xmlns="http://www.w3.org/2000/svg">
<g id="Help button">
<rect width="16" height="16" fill="#636364" style="fill:#636364;fill:color(display-p3 0.3882 0.3882 0.3922);fill-opacity:1;"/>
<path id="?" d="M6.988 9.86V9.342C6.988 9.02467 7.03 8.74933 7.114 8.516C7.20733 8.28267 7.37067 8.054 7.604 7.83C7.83733 7.606 8.164 7.36333 8.584 7.102C8.96667 6.85933 9.26067 6.60733 9.466 6.346C9.68067 6.07533 9.788 5.76267 9.788 5.408C9.788 4.96 9.62467 4.61 9.298 4.358C8.97133 4.106 8.55133 3.98 8.038 3.98C7.618 3.98 7.27733 4.05933 7.016 4.218C6.75467 4.36733 6.554 4.55867 6.414 4.792C6.28333 5.02533 6.19467 5.26333 6.148 5.506L5 5.184C5.09333 4.736 5.28 4.34867 5.56 4.022C5.84933 3.69533 6.20867 3.44333 6.638 3.266C7.07667 3.08867 7.562 3 8.094 3C8.57933 3 9.046 3.084 9.494 3.252C9.942 3.41067 10.306 3.658 10.586 3.994C10.8753 4.33 11.02 4.764 11.02 5.296C11.02 5.69733 10.9407 6.06133 10.782 6.388C10.6233 6.70533 10.4133 6.99 10.152 7.242C9.89067 7.494 9.59667 7.72267 9.27 7.928C8.97133 8.11467 8.74267 8.278 8.584 8.418C8.42533 8.558 8.318 8.70267 8.262 8.852C8.21533 9.00133 8.192 9.17867 8.192 9.384V9.86H6.988ZM7.59 12.688C7.338 12.688 7.12333 12.5993 6.946 12.422C6.76867 12.2447 6.68 12.03 6.68 11.778C6.68 11.526 6.76867 11.3113 6.946 11.134C7.12333 10.9567 7.338 10.868 7.59 10.868C7.842 10.868 8.05667 10.9567 8.234 11.134C8.41133 11.3113 8.5 11.526 8.5 11.778C8.5 12.03 8.41133 12.2447 8.234 12.422C8.05667 12.5993 7.842 12.688 7.59 12.688Z" fill="var(--fill-0, #030304)" style="fill:#030304;fill:color(display-p3 0.0118 0.0118 0.0157);fill-opacity:1;"/>
</g>
</svg>
